<svg xmlns="http://www.w3.org/2000/svg" viewBox="0 0 500 625"><path d="M235 41.2v307.4c0 7.8 6.9 15.4 15 15 8.1-.4 15-6.6 15-15V244.5 78.9 41.2c0-7.8-6.9-15.4-15-15-8.1.4-15 6.6-15 15z"/><path d="M125.4 232c12.8 15.1 25.7 30.2 38.5 45.3 20.5 24.1 40.9 48.1 61.4 72.2 4.7 5.5 9.4 11 14.1 16.6 5 5.8 16.3 5.8 21.2 0 12.8-15.1 25.7-30.2 38.5-45.3 20.5-24.1 40.9-48.1 61.4-72.2 4.7-5.5 9.4-11 14.1-16.6 5.2-6.2 6.1-15.2 0-21.2-5.4-5.4-15.9-6.2-21.2 0-12.8 15.1-25.7 30.2-38.5 45.3-20.5 24.1-40.9 48.1-61.4 72.2-4.7 5.5-9.4 11-14.1 16.6h21.2c-12.8-15.1-25.7-30.2-38.5-45.3-20.5-24.1-40.9-48.1-61.4-72.2-4.7-5.5-9.4-11-14.1-16.6-5.3-6.2-15.8-5.4-21.2 0-6.1 6.1-5.2 15 0 21.2zM70.8 473.3h314.1c14.5 0 29.1.5 43.5 0h.6c7.8 0 15.4-6.9 15-15-.4-8.1-6.6-15-15-15H114.9c-14.5 0-29.1-.5-43.5 0h-.6c-7.8 0-15.4 6.9-15 15 .4 8.1 6.6 15 15 15z"/></svg>