<svg xmlns="http://www.w3.org/2000/svg" viewBox="0 0 34.146 50.208">
  <g id="Group_195" data-name="Group 195" transform="translate(0 0)">
    <path id="Path_260" data-name="Path 260" d="M4.3,5.75a1.19,1.19,0,0,1,1.79,1.568L5.936,7.5a1.19,1.19,0,0,1-1.79-1.568L4.3,5.75ZM1.525,10.021A1.191,1.191,0,1,1,3.7,11a14.7,14.7,0,0,0-1.31,6.075c0,6.272,10.776,23.106,14.686,29.6,3.909-6.494,14.686-23.324,14.686-29.6A14.692,14.692,0,0,0,9.319,4.6,1.191,1.191,0,0,1,8.062,2.574a17.07,17.07,0,0,1,26.085,14.5c0,7.447-11.635,24.889-16.042,32.539a1.191,1.191,0,0,1-2.062,0C11.632,41.966,0,24.513,0,17.073a17.109,17.109,0,0,1,1.525-7.053Z" transform="translate(0 0)" />
    <path id="Path_261" data-name="Path 261" d="M33.046,24.88a8.166,8.166,0,1,1-8.166,8.166,8.165,8.165,0,0,1,8.166-8.166Zm0,2.388a5.782,5.782,0,1,0,5.782,5.782A5.782,5.782,0,0,0,33.046,27.268Z" transform="translate(-15.973 -15.973)"/>
  </g>
</svg>
