<svg xmlns="http://www.w3.org/2000/svg" width="50.292" height="51" viewBox="0 0 50.292 51">
  <g id="Group_67" data-name="Group 67" transform="translate(-1088 -919)">
    <g id="Group_66" data-name="Group 66" transform="translate(1088 919)">
      <g id="Path_251" data-name="Path 251" transform="translate(0)" fill="none">
        <path d="M25.146,0A25.325,25.325,0,0,1,50.291,25.5,25.325,25.325,0,0,1,25.146,51,25.325,25.325,0,0,1,0,25.5,25.325,25.325,0,0,1,25.146,0Z" stroke="none"/>
        <path d="M 25.14574432373047 4 C 19.50809478759766 4 14.20492553710938 6.229331970214844 10.21315383911133 10.27732849121094 C 8.265365600585938 12.2525520324707 6.736103057861328 14.55273056030273 5.667823791503906 17.11399078369141 C 4.561134338378906 19.7673511505127 3.999996185302734 22.58877944946289 3.999996185302734 25.49991035461426 C 3.999996185302734 28.41104125976562 4.561134338378906 31.23246955871582 5.667823791503906 33.88582992553711 C 6.736103057861328 36.44709014892578 8.265365600585938 38.74726867675781 10.21315383911133 40.72248840332031 C 14.20492553710938 44.77048873901367 19.50809478759766 46.99982070922852 25.14574432373047 46.99982070922852 C 30.78339385986328 46.99982070922852 36.08655548095703 44.77048873901367 40.07833480834961 40.72248840332031 C 42.02611541748047 38.74726867675781 43.55538558959961 36.44709014892578 44.62365341186523 33.88582992553711 C 45.73034286499023 31.23246955871582 46.29148483276367 28.41104125976562 46.29148483276367 25.49991035461426 C 46.29148483276367 22.58877944946289 45.73034286499023 19.7673511505127 44.62365341186523 17.11399078369141 C 43.55538558959961 14.55273056030273 42.02611541748047 12.2525520324707 40.07833480834961 10.27732849121094 C 36.08655548095703 6.229331970214844 30.78339385986328 4 25.14574432373047 4 M 25.14574432373047 0 C 39.03335571289062 0 50.29148483276367 11.41669845581055 50.29148483276367 25.49991035461426 C 50.29148483276367 39.58312225341797 39.03335571289062 50.99982070922852 25.14574432373047 50.99982070922852 C 11.25813293457031 50.99982070922852 -3.814697265625e-06 39.58312225341797 -3.814697265625e-06 25.49991035461426 C -3.814697265625e-06 11.41669845581055 11.25813293457031 0 25.14574432373047 0 Z" stroke="none"/>
      </g>
    </g>
    <path id="Subtraction_5" data-name="Subtraction 5" d="M30.231,18.371H0V1.173l5.261,3.4L8.274,6.526c3.709,2.4,6.651,4.134,6.974,4.324l.005,0v-.031L30.231.9V18.371ZM15.244,9.906h0L.187,0h29.68L15.244,9.906Z" transform="translate(1098.2 935.171)"/>
  </g>
</svg>
