<svg  viewBox="0 0 40.5 40.5"  xmlns="http://www.w3.org/2000/svg"><path d="m36.183 959.362a.942.942 0 0 1 .942.942v5.784a3.767 3.767 0 1 1 -1.884 0v-5.788a.942.942 0 0 1 .942-.938zm-17.9 0a.942.942 0 0 1 .942.942v5.784a3.767 3.767 0 1 1 -1.884 0v-5.788a.942.942 0 0 1 .947-.938zm24.488 2.826a4.736 4.736 0 0 1 4.724 4.724v28.226a4.735 4.735 0 0 1 -4.724 4.724h-31.047a4.735 4.735 0 0 1 -4.724-4.724v-28.226a4.736 4.736 0 0 1 4.724-4.724h2.811a.942.942 0 1 1 0 1.884h-2.811a2.817 2.817 0 0 0 -2.84 2.84v8.462h36.732v-8.462a2.817 2.817 0 0 0 -2.84-2.84h-2.811a.942.942 0 1 1 0-1.884zm-10.346 0a.942.942 0 0 1 0 1.884h-10.355a.942.942 0 0 1 0-1.884zm3.753 5.651a1.884 1.884 0 1 0 1.884 1.884 1.87 1.87 0 0 0 -1.879-1.884zm-17.9 0a1.884 1.884 0 1 0 1.884 1.884 1.87 1.87 0 0 0 -1.874-1.884zm27.329 9.419h-36.723v17.881a2.817 2.817 0 0 0 2.84 2.84h31.052a2.817 2.817 0 0 0 2.84-2.84z" transform="translate(-7 -959.362)"/></svg>