<svg xmlns="http://www.w3.org/2000/svg" width="50.292" height="51" viewBox="0 0 50.292 51">
  <g id="Group_70" data-name="Group 70" transform="translate(-1106 -1086)">
    <g id="Group_68" data-name="Group 68" transform="translate(1106 1086)">
      <g id="Ellipse_233" data-name="Ellipse 233" transform="translate(0 0)" fill="none" stroke-width="4">
        <ellipse cx="25.146" cy="25.5" rx="25.146" ry="25.5" stroke="none"/>
        <ellipse cx="25.146" cy="25.5" rx="23.146" ry="23.5" fill="none"/>
      </g>
    </g>
    <g id="Group_69" data-name="Group 69" transform="translate(1116.698 1094.738)">
      <path id="Path_219" data-name="Path 219" d="M430.155-39.833A9.635,9.635,0,0,1,425.838-41a14.634,14.634,0,0,1-3.311-2.522,71.092,71.092,0,0,1-5.315-5.9,29.746,29.746,0,0,1-4.244-6.783,16.926,16.926,0,0,1-1.42-5.259c-.031-.323-.061-.646-.091-.968v-1.008c.01-.047.021-.094.028-.141.072-.437.113-.882.222-1.31a12.2,12.2,0,0,1,2.923-5.265,8.216,8.216,0,0,1,2.034-1.65,4.494,4.494,0,0,1,1.492-.512h.39a3.232,3.232,0,0,1,2.087,1.508,43.013,43.013,0,0,1,3.333,4.921,1.678,1.678,0,0,1,.166.669,2.788,2.788,0,0,1-.876,2.288,21.5,21.5,0,0,1-2.624,2.228c-.506.371-1,.767-1.479,1.168a1.321,1.321,0,0,0-.358,1.8,6.143,6.143,0,0,0,.775,1.215c.9,1.083,1.826,2.146,2.76,3.2q2.07,2.336,4.171,4.646c.448.49.952.931,1.447,1.377a2.929,2.929,0,0,0,.6.387,1.338,1.338,0,0,0,1.491-.067A15.372,15.372,0,0,0,431.3-48.03c.833-.751,1.64-1.53,2.481-2.271a3.232,3.232,0,0,1,1.8-.8,2.4,2.4,0,0,1,1.5.331,5.694,5.694,0,0,1,.987.681c.814.739,1.613,1.5,2.391,2.272a4.406,4.406,0,0,1,1.057,1.585,7.077,7.077,0,0,1,.192.768v.13a.391.391,0,0,0-.022.077,2.657,2.657,0,0,1-.5,1.288,6.072,6.072,0,0,1-1.46,1.468,14.157,14.157,0,0,1-5.805,2.431S431.723-39.817,430.155-39.833Z" transform="translate(-411.457 72.323)" />
    </g>
  </g>
</svg>

